<svg width="450" height="270" viewBox="0 0 450 270" fill="none" xmlns="http://www.w3.org/2000/svg">
<g clip-path="url(#clip0_86:243)">
<path d="M28.3071 56.5939C22.7085 56.5939 17.2356 54.9343 12.5805 51.825C7.92542 48.7157 4.29721 44.2963 2.15471 39.1257C0.0122041 33.9551 -0.548373 28.2656 0.543866 22.7765C1.63611 17.2874 4.33211 12.2454 8.29094 8.28799C12.2498 4.3306 17.2936 1.63557 22.7847 0.54373C28.2758 -0.548113 33.9674 0.0122607 39.1398 2.15399C44.3123 4.29572 48.7333 7.92261 51.8437 12.576C54.9542 17.2294 56.6143 22.7004 56.6143 28.297C56.6059 35.7992 53.6208 42.9917 48.314 48.2965C43.0072 53.6014 35.8121 56.5854 28.3071 56.5939ZM28.3071 1.17905C22.9418 1.17905 17.6969 2.76949 13.2358 5.74924C8.77466 8.729 5.29763 12.9642 3.2444 17.9194C1.19116 22.8745 0.653945 28.327 1.70067 33.5874C2.7474 38.8478 5.33106 43.6797 9.12494 47.4722C12.9188 51.2647 17.7525 53.8474 23.0148 54.8938C28.2771 55.9401 33.7315 55.4031 38.6885 53.3506C43.6454 51.2981 47.8822 47.8224 50.863 43.3629C53.8439 38.9033 55.4349 33.6604 55.4349 28.297C55.4267 21.1073 52.566 14.2145 47.4804 9.13071C42.3947 4.04688 35.4994 1.1872 28.3071 1.17905Z" fill="#F2F2F2"/>
<path d="M220.56 40.0872C217.761 40.0872 215.024 39.2574 212.697 37.7028C210.369 36.1481 208.555 33.9384 207.484 31.3531C206.413 28.7678 206.132 25.9231 206.679 23.1785C207.225 20.434 208.573 17.913 210.552 15.9343C212.532 13.9556 215.053 12.6081 217.799 12.0621C220.544 11.5162 223.39 11.7964 225.977 12.8673C228.563 13.9381 230.773 15.7516 232.328 18.0783C233.884 20.405 234.714 23.1405 234.714 25.9388C234.71 29.6899 233.217 33.2861 230.564 35.9385C227.91 38.591 224.313 40.083 220.56 40.0872ZM220.56 12.9693C217.994 12.9693 215.486 13.73 213.352 15.1551C211.219 16.5802 209.556 18.6057 208.574 20.9756C207.592 23.3454 207.335 25.9532 207.835 28.469C208.336 30.9848 209.572 33.2957 211.386 35.1095C213.201 36.9233 215.512 38.1586 218.029 38.659C220.546 39.1594 223.154 38.9026 225.525 37.921C227.896 36.9393 229.922 35.277 231.348 33.1442C232.773 31.0114 233.534 28.5039 233.534 25.9388C233.53 22.5002 232.162 19.2037 229.73 16.7723C227.298 14.3409 224 12.9732 220.56 12.9693Z" fill="#F2F2F2"/>
<path d="M320.225 109.061C317.076 109.061 313.997 108.128 311.379 106.379C308.76 104.63 306.719 102.144 305.514 99.2353C304.309 96.3268 303.994 93.1264 304.608 90.0388C305.223 86.9512 306.739 84.1151 308.966 81.889C311.193 79.663 314.03 78.1471 317.119 77.5329C320.207 76.9187 323.409 77.234 326.318 78.4387C329.228 79.6434 331.715 81.6835 333.464 84.3011C335.214 86.9186 336.148 89.996 336.148 93.1441C336.143 97.3641 334.464 101.41 331.479 104.394C328.494 107.378 324.447 109.056 320.225 109.061ZM320.225 78.4061C317.309 78.4061 314.459 79.2705 312.034 80.8899C309.61 82.5093 307.72 84.8111 306.604 87.5041C305.488 90.1971 305.196 93.1604 305.765 96.0193C306.334 98.8782 307.738 101.504 309.8 103.565C311.862 105.627 314.489 107.03 317.349 107.599C320.209 108.168 323.173 107.876 325.867 106.76C328.561 105.645 330.864 103.756 332.484 101.332C334.104 98.9084 334.968 96.059 334.968 93.1441C334.964 89.2367 333.409 85.4906 330.645 82.7276C327.881 79.9646 324.134 78.4105 320.225 78.4061Z" fill="#F2F2F2"/>
<path d="M449.41 270H316.72C316.564 270 316.414 269.938 316.303 269.827C316.193 269.717 316.131 269.567 316.131 269.411C316.131 269.254 316.193 269.104 316.303 268.994C316.414 268.883 316.564 268.821 316.72 268.821H449.41C449.567 268.821 449.717 268.883 449.827 268.994C449.938 269.104 450 269.254 450 269.411C450 269.567 449.938 269.717 449.827 269.827C449.717 269.938 449.567 270 449.41 270Z" fill="black"/>
<path d="M377.97 90.342C385.97 90.342 392.454 83.8594 392.454 75.8628C392.454 67.8661 385.97 61.3835 377.97 61.3835C369.971 61.3835 363.486 67.8661 363.486 75.8628C363.486 83.8594 369.971 90.342 377.97 90.342Z" fill="#FFB8B8"/>
<path d="M379.473 247.8L372.627 250.124L360.4 224.834L370.504 221.404L379.473 247.8Z" fill="#FFB8B8"/>
<path d="M367.073 249.83L380.276 245.347L383.099 253.657L361.583 260.962C361.213 259.871 361.06 258.717 361.136 257.567C361.211 256.417 361.512 255.293 362.022 254.259C362.531 253.226 363.24 252.302 364.106 251.542C364.973 250.782 365.981 250.2 367.073 249.83Z" fill="#075E54"/>
<path d="M394.941 262.086L387.72 262.448L382.884 234.779L393.541 234.243L394.941 262.086Z" fill="#FFB8B8"/>
<path d="M382.458 260.645L396.384 259.945L396.825 268.71L374.131 269.85C374.073 268.699 374.243 267.548 374.63 266.463C375.017 265.377 375.614 264.378 376.388 263.524C377.161 262.669 378.095 261.975 379.137 261.481C380.178 260.987 381.307 260.703 382.458 260.645Z" fill="#075E54"/>
<path d="M351.97 170.153C352.617 169.577 353.131 168.866 353.473 168.07C353.816 167.274 353.98 166.412 353.954 165.546C353.928 164.68 353.712 163.83 353.321 163.056C352.931 162.282 352.375 161.603 351.694 161.067L358.579 141.157L347.968 143.867L343.057 162.359C342.232 163.563 341.878 165.027 342.061 166.475C342.244 167.922 342.952 169.253 344.05 170.213C345.149 171.174 346.562 171.698 348.022 171.687C349.481 171.676 350.886 171.13 351.97 170.153Z" fill="#FFB8B8"/>
<path d="M394.266 253.743C394.173 253.743 394.079 253.738 393.986 253.728L384.185 252.691C383.582 252.63 383.019 252.364 382.59 251.938C382.161 251.511 381.891 250.95 381.827 250.348L374.252 182.843L368.771 201.315L378.99 237.62C379.094 237.989 379.117 238.377 379.056 238.757C378.995 239.136 378.853 239.497 378.639 239.816C378.425 240.135 378.144 240.404 377.816 240.604C377.488 240.804 377.12 240.93 376.738 240.974L366.803 242.115C366.17 242.185 365.533 242.027 365.007 241.668C364.481 241.31 364.101 240.775 363.935 240.161L353.079 199.306C352.989 198.97 352.967 198.62 353.013 198.275L357.892 161.608L394.287 164.525L396.919 251.009C396.93 251.364 396.869 251.718 396.741 252.049C396.612 252.38 396.418 252.683 396.171 252.937C395.924 253.192 395.628 253.395 395.3 253.534C394.973 253.672 394.621 253.743 394.266 253.743V253.743Z" fill="#075E54"/>
<path d="M381.685 170.795C369.492 170.795 355.687 166.085 354.851 165.796L354.609 165.712L368.365 95.1562L368.618 95.1666C374.069 95.3877 388.946 95.5011 389.095 95.5022L389.362 95.5043L395.096 157.769L396.121 166.876L395.995 166.977C392.488 169.812 387.255 170.795 381.685 170.795Z" fill="#6C63FF"/>
<path d="M359.657 164.697L351.053 161.233L355.439 108.209C355.544 106.902 355.942 105.635 356.603 104.502C357.264 103.369 358.171 102.399 359.257 101.664L363.784 98.5836C363.656 98.1481 363.633 97.6885 363.717 97.2424C363.801 96.7963 363.99 96.3766 364.268 96.0176C364.546 95.6586 364.905 95.3705 365.315 95.1772C365.726 94.9838 366.177 94.8906 366.631 94.9052L367.928 94.9469C368.174 94.7807 368.465 94.693 368.762 94.6951C369.06 94.6972 369.349 94.7891 369.593 94.9587C369.837 95.1284 370.024 95.3678 370.13 95.6456C370.235 95.9234 370.255 96.2266 370.185 96.5154L369.9 102.133L359.657 164.697Z" fill="#075E54"/>
<path d="M355.316 155.192L344.082 154.719L347.721 131.319L350.737 109.302C350.796 108.511 351.033 107.744 351.431 107.058C351.828 106.372 352.376 105.784 353.032 105.34C353.689 104.895 354.438 104.604 355.222 104.489C356.007 104.374 356.808 104.438 357.564 104.676C358.743 105.046 359.753 105.818 360.419 106.858C361.085 107.898 361.363 109.139 361.206 110.363L358.151 134.22L355.316 155.192Z" fill="#075E54"/>
<path d="M373.103 165.508L373.027 165.272C372.975 165.11 367.912 148.877 376.383 129.505L380.631 108.385L384.262 95.1236C384.33 94.8866 384.452 94.6687 384.619 94.4873C384.786 94.3058 384.993 94.1658 385.224 94.0784C385.495 93.9846 385.787 93.9726 386.065 94.044C386.343 94.1153 386.593 94.2668 386.786 94.4795C389.316 93.7371 392.036 94.009 394.369 95.2376L399.467 97.9222C400.601 98.5191 401.504 99.4752 402.036 100.64C402.568 101.806 402.697 103.115 402.405 104.362L395.437 134.087L398.824 161.851L373.103 165.508Z" fill="#075E54"/>
<path d="M380.522 154.064C381.384 154.157 382.256 154.061 383.077 153.781C383.897 153.501 384.646 153.045 385.271 152.445C385.897 151.844 386.382 151.114 386.695 150.305C387.007 149.497 387.138 148.63 387.079 147.765L402.858 136.081L397.342 133.467L380.328 142.228C378.881 142.424 377.557 143.143 376.605 144.25C375.654 145.356 375.142 146.773 375.166 148.232C375.19 149.691 375.748 151.091 376.736 152.165C377.723 153.24 379.07 153.916 380.522 154.064V154.064Z" fill="#FFB8B8"/>
<path d="M390.415 148.833L385.085 138.889L398.229 130.242L391.815 107.244C391.558 106.324 391.494 105.36 391.626 104.413C391.759 103.467 392.085 102.557 392.585 101.742C393.084 100.927 393.747 100.224 394.531 99.6767C395.314 99.1291 396.203 98.749 397.14 98.56C398.797 98.23 400.517 98.5121 401.981 99.3539C403.445 100.196 404.554 101.54 405.102 103.137L413.756 128.566C413.934 129.09 413.944 129.657 413.784 130.187C413.624 130.717 413.303 131.183 412.864 131.521L390.415 148.833Z" fill="#075E54"/>
<path d="M378.995 78.9339C377.259 79.1597 375.949 77.3839 375.342 75.7422C374.734 74.1006 374.271 72.1895 372.762 71.3027C370.699 70.0912 368.06 71.5483 365.702 71.1486C363.038 70.6972 361.307 67.8755 361.171 65.1783C361.035 62.4812 362.109 59.8872 363.162 57.4004L363.53 60.4909C363.481 59.4434 363.701 58.4009 364.17 57.463C364.64 56.5251 365.341 55.7232 366.209 55.134L365.735 59.6688C365.836 59.0431 366.059 58.4436 366.393 57.9045C366.726 57.3654 367.162 56.8974 367.677 56.5274C368.192 56.1574 368.774 55.8926 369.392 55.7482C370.009 55.6039 370.649 55.5828 371.274 55.6862L371.2 58.3882C374.276 58.0225 377.379 57.6563 380.465 57.9349C383.55 58.2135 386.657 59.1894 388.995 61.2206C392.494 64.2591 393.771 69.2623 393.342 73.8749C392.913 78.4875 391.009 82.8206 389.023 87.0065C388.524 88.0597 387.833 89.2482 386.675 89.3823C385.634 89.5028 384.682 88.6332 384.358 87.6372C384.109 86.6152 384.119 85.5471 384.387 84.5298C384.679 82.9751 385.048 81.3859 384.773 79.828C384.498 78.2701 383.377 76.7306 381.806 76.5396C380.235 76.3487 378.627 78.1438 379.382 79.534L378.995 78.9339Z" fill="#075E54"/>
<path d="M189.487 237.917L183.849 235.543L179.981 207.289H128.474L124.281 235.428L119.237 237.949C118.996 238.07 118.802 238.268 118.688 238.513C118.573 238.757 118.545 239.033 118.607 239.295C118.669 239.558 118.818 239.792 119.029 239.959C119.241 240.127 119.503 240.218 119.773 240.218H189.022C189.299 240.218 189.567 240.122 189.781 239.947C189.995 239.772 190.142 239.528 190.197 239.257C190.251 238.986 190.211 238.705 190.081 238.46C189.952 238.216 189.742 238.024 189.487 237.917Z" fill="#075E54"/>
<path d="M281.019 211.048H28.0011C26.6736 211.045 25.4015 210.516 24.4638 209.576C23.5262 208.637 22.9996 207.364 22.9996 206.037V170.371H286.021V206.037C286.021 207.364 285.494 208.637 284.556 209.576C283.619 210.516 282.347 211.045 281.019 211.048Z" fill="#075E54"/>
<path d="M286.285 187.228H22.7687V34.6206C22.7705 33.0191 23.4078 31.4837 24.5407 30.3513C25.6736 29.2189 27.2096 28.5819 28.8117 28.5801H280.242C281.844 28.5819 283.38 29.2189 284.513 30.3513C285.646 31.4837 286.283 33.0191 286.285 34.6206V187.228Z" fill="#075E54"/>
<path d="M270.546 176.152H38.5075C37.2724 176.15 36.0882 175.659 35.2149 174.786C34.3415 173.913 33.8502 172.729 33.8488 171.495V44.3134C33.8502 43.0787 34.3415 41.895 35.2148 41.0219C36.0882 40.1488 37.2724 39.6577 38.5075 39.6562H270.546C271.781 39.6577 272.966 40.1488 273.839 41.0219C274.712 41.895 275.204 43.0787 275.205 44.3134V171.495C275.204 172.729 274.712 173.913 273.839 174.786C272.966 175.659 271.781 176.15 270.546 176.152Z" fill="white"/>
<path d="M268.362 240.512H43.6738C43.5174 240.512 43.3674 240.45 43.2568 240.34C43.1462 240.229 43.0841 240.079 43.0841 239.923C43.0841 239.766 43.1462 239.616 43.2568 239.506C43.3674 239.395 43.5174 239.333 43.6738 239.333H268.362C268.519 239.333 268.669 239.395 268.779 239.506C268.89 239.616 268.952 239.766 268.952 239.923C268.952 240.079 268.89 240.229 268.779 240.34C268.669 240.45 268.519 240.512 268.362 240.512Z" fill="black"/>
<path d="M248.747 160.349H60.3065C60.1501 160.349 60.0001 160.287 59.8895 160.177C59.7789 160.066 59.7168 159.916 59.7168 159.76V69.4728C59.7168 69.3165 59.7789 69.1665 59.8895 69.056C60.0001 68.9454 60.1501 68.8833 60.3065 68.8833C60.4629 68.8833 60.6129 68.9454 60.7235 69.056C60.8341 69.1665 60.8963 69.3165 60.8963 69.4728V159.17H248.747C248.904 159.17 249.054 159.232 249.164 159.343C249.275 159.453 249.337 159.603 249.337 159.76C249.337 159.916 249.275 160.066 249.164 160.177C249.054 160.287 248.904 160.349 248.747 160.349Z" fill="#3F3D56"/>
<path d="M100.568 153.865H83.4286C82.9645 153.864 82.5195 153.68 82.1913 153.352C81.8632 153.024 81.6785 152.579 81.678 152.115V128.497C81.6785 128.033 81.8632 127.588 82.1913 127.26C82.5195 126.932 82.9645 126.747 83.4286 126.747H100.568C101.032 126.747 101.477 126.932 101.805 127.26C102.133 127.588 102.318 128.033 102.319 128.497V152.115C102.318 152.579 102.133 153.024 101.805 153.352C101.477 153.68 101.032 153.864 100.568 153.865Z" fill="#37BD25"/>
<path d="M131.824 153.865H114.684C114.22 153.864 113.775 153.68 113.447 153.352C113.119 153.023 112.934 152.579 112.934 152.115V106.095C112.934 105.631 113.119 105.186 113.447 104.858C113.775 104.53 114.22 104.345 114.684 104.345H131.824C132.288 104.345 132.733 104.53 133.061 104.858C133.389 105.186 133.574 105.631 133.575 106.095V152.115C133.574 152.579 133.389 153.023 133.061 153.352C132.733 153.68 132.288 153.864 131.824 153.865Z" fill="#37BD25"/>
<path d="M163.08 153.865H145.94C145.476 153.864 145.031 153.68 144.703 153.352C144.375 153.024 144.19 152.579 144.19 152.115V128.497C144.19 128.033 144.375 127.588 144.703 127.26C145.031 126.932 145.476 126.747 145.94 126.747H163.08C163.544 126.747 163.989 126.932 164.317 127.26C164.645 127.588 164.83 128.033 164.83 128.497V152.115C164.83 152.579 164.645 153.024 164.317 153.352C163.989 153.68 163.544 153.864 163.08 153.865Z" fill="#37BD25"/>
<path d="M194.336 153.865H177.196C176.743 153.874 176.304 153.704 175.976 153.391C175.647 153.078 175.457 152.647 175.446 152.194V97.1727C175.457 96.7193 175.647 96.289 175.976 95.9758C176.304 95.6627 176.743 95.4923 177.196 95.5021H194.336C194.789 95.4923 195.228 95.6627 195.556 95.9758C195.884 96.289 196.075 96.7193 196.086 97.1727V152.194C196.075 152.647 195.884 153.078 195.556 153.391C195.228 153.704 194.789 153.874 194.336 153.865Z" fill="#37BD25"/>
<path d="M225.592 153.865H208.452C207.988 153.864 207.543 153.68 207.215 153.352C206.887 153.024 206.702 152.579 206.701 152.115V81.3351C206.702 80.8711 206.887 80.4263 207.215 80.0983C207.543 79.7702 207.988 79.5857 208.452 79.5852H225.592C226.056 79.5857 226.501 79.7702 226.829 80.0983C227.157 80.4263 227.342 80.8711 227.342 81.3351V152.115C227.342 152.579 227.157 153.024 226.829 153.352C226.501 153.68 226.056 153.864 225.592 153.865Z" fill="#37BD25"/>
<path d="M91.9984 119.672C93.9526 119.672 95.5368 118.089 95.5368 116.135C95.5368 114.182 93.9526 112.598 91.9984 112.598C90.0442 112.598 88.46 114.182 88.46 116.135C88.46 118.089 90.0442 119.672 91.9984 119.672Z" fill="#075E54"/>
<path d="M123.254 96.6812C125.208 96.6812 126.793 95.0976 126.793 93.1441C126.793 91.1906 125.208 89.6069 123.254 89.6069C121.3 89.6069 119.716 91.1906 119.716 93.1441C119.716 95.0976 121.3 96.6812 123.254 96.6812Z" fill="#075E54"/>
<path d="M154.51 119.672C156.464 119.672 158.048 118.089 158.048 116.135C158.048 114.182 156.464 112.598 154.51 112.598C152.556 112.598 150.972 114.182 150.972 116.135C150.972 118.089 152.556 119.672 154.51 119.672Z" fill="#075E54"/>
<path d="M185.766 85.4802C187.72 85.4802 189.304 83.8966 189.304 81.9431C189.304 79.9896 187.72 78.406 185.766 78.406C183.812 78.406 182.228 79.9896 182.228 81.9431C182.228 83.8966 183.812 85.4802 185.766 85.4802Z" fill="#075E54"/>
<path d="M217.022 72.511C218.976 72.511 220.56 70.9274 220.56 68.9739C220.56 67.0204 218.976 65.4368 217.022 65.4368C215.068 65.4368 213.483 67.0204 213.483 68.9739C213.483 70.9274 215.068 72.511 217.022 72.511Z" fill="#075E54"/>
<path d="M154.584 116.928L123.254 93.4696L92.3523 116.607L91.6446 115.664L123.254 91.9964L154.436 115.343L185.421 81.4469L185.545 81.3962L216.801 68.8076L217.242 69.9012L186.111 82.4397L154.584 116.928Z" fill="#075E54"/>
<path d="M261.769 57.8157C261.445 57.4053 261.018 57.0802 260.528 56.8705C259.925 56.6256 259.301 56.4285 258.664 56.2812V52.7756C259.643 52.9177 260.562 53.3207 261.315 53.939L262.055 52.422C261.629 52.0573 261.141 51.767 260.612 51.5641C260.026 51.3356 259.41 51.1836 258.782 51.1123V49.3354H257.07V51.1297C256.408 51.2012 255.771 51.4073 255.199 51.7344C254.682 52.0287 254.247 52.4392 253.931 52.9306C253.629 53.4101 253.473 53.9613 253.479 54.5218C253.45 55.1293 253.633 55.7287 253.999 56.2244C254.336 56.6536 254.78 56.9932 255.291 57.2111C255.905 57.4632 256.539 57.6654 257.188 57.8157V61.1751C256.032 61.0912 254.931 60.6683 254.033 59.9636L253.293 61.4828C253.796 61.8824 254.367 62.1942 254.981 62.404C255.654 62.6357 256.357 62.7768 257.07 62.8231V64.5846H258.782V62.7903C259.733 62.6903 260.625 62.2967 261.324 61.6684C261.632 61.3841 261.876 61.0413 262.039 60.6618C262.202 60.2823 262.282 59.8744 262.272 59.4637C262.301 58.8756 262.124 58.2954 261.769 57.8157ZM257.188 55.9101C256.77 55.7884 256.383 55.588 256.047 55.3207C255.914 55.2068 255.808 55.0658 255.739 54.9081C255.669 54.7503 255.636 54.5797 255.643 54.4083C255.631 54.0195 255.779 53.6419 256.056 53.3584C256.363 53.0609 256.758 52.8632 257.188 52.793V55.9101ZM259.739 60.5551C259.45 60.8407 259.073 61.0297 258.664 61.0943V58.2042C259.055 58.3052 259.421 58.4811 259.739 58.7216C259.86 58.8208 259.956 58.9449 260.02 59.0848C260.084 59.2246 260.114 59.3765 260.109 59.5292C260.125 59.9038 259.992 60.2703 259.739 60.5551Z" fill="#37BD25" fill-opacity="0.39"/>
</g>
<defs>
<clipPath id="clip0_86:243">
<rect width="450" height="270" fill="white"/>
</clipPath>
</defs>
</svg>
