<svg width="368" height="296" viewBox="0 0 368 296" fill="none" xmlns="http://www.w3.org/2000/svg">
<path d="M210.002 295.281C206.673 295.29 203.476 293.979 201.113 291.637C198.751 289.294 197.415 286.111 197.398 282.786V273.754C187.931 274.813 155.515 274.568 146.222 273.076V282.425C146.197 285.747 144.858 288.925 142.498 291.266C140.137 293.607 136.945 294.92 133.619 294.92C130.293 294.92 127.101 293.607 124.74 291.266C122.379 288.925 121.04 285.747 121.016 282.425V264.07C108.43 257.086 97.938 246.874 90.6227 234.488C83.3073 222.102 79.4334 207.99 79.4009 193.609C79.4009 168.951 90.5888 145.948 110.096 130.499C122.779 120.42 138.19 114.359 154.347 113.093C156.541 112.922 158.747 112.835 160.906 112.835C168.512 112.835 202.827 114.008 211.437 116.482L231.069 97.0241C231.358 96.7341 231.726 96.5366 232.128 96.4567C232.529 96.3768 232.946 96.4181 233.323 96.5754C233.704 96.7267 234.03 96.9894 234.259 97.3291C234.487 97.6688 234.607 98.0697 234.604 98.4789V101.573L238.426 97.791C238.715 97.5008 239.083 97.3029 239.484 97.2229C239.885 97.1428 240.301 97.1842 240.679 97.3416C241.06 97.4928 241.386 97.7556 241.615 98.0954C241.844 98.4353 241.964 98.8363 241.961 99.2458V133.818C251.812 142.689 259.32 153.851 263.82 166.313C268.32 178.775 269.673 192.154 267.759 205.264C265.844 218.373 260.722 230.809 252.846 241.468C244.969 252.128 234.582 260.682 222.605 266.372V282.786C222.588 286.111 221.252 289.294 218.89 291.637C216.527 293.979 213.33 295.29 210.002 295.281ZM198.389 272.632V282.786C198.414 285.846 199.649 288.772 201.824 290.927C203.999 293.082 206.938 294.291 210.001 294.291C213.065 294.291 216.004 293.082 218.179 290.927C220.354 288.772 221.589 285.846 221.614 282.786V265.747L221.897 265.613C235.336 259.243 246.745 249.277 254.857 236.822C265.194 220.928 269.492 201.863 266.975 183.077C264.458 164.292 255.292 147.027 241.134 134.407L240.97 134.26V99.2458C240.973 99.0331 240.912 98.8244 240.793 98.6478C240.674 98.4712 240.504 98.3353 240.305 98.2583C240.108 98.174 239.889 98.1512 239.679 98.193C239.468 98.2348 239.275 98.3392 239.125 98.4924L233.613 103.946V98.4789C233.616 98.2661 233.555 98.0574 233.436 97.8809C233.317 97.7043 233.147 97.5684 232.948 97.4914C232.75 97.4072 232.532 97.3847 232.321 97.4268C232.11 97.4688 231.917 97.5736 231.766 97.7272L211.714 117.602L211.429 117.513C203.425 115.011 168.57 113.824 160.906 113.824C158.773 113.824 156.592 113.91 154.425 114.08C138.464 115.33 123.241 121.318 110.712 131.274C91.4428 146.534 80.3916 169.255 80.3916 193.609C80.4246 207.863 84.2777 221.848 91.5508 234.111C98.8239 246.374 109.252 256.469 121.751 263.346L122.006 263.487V282.425C122.032 285.485 123.267 288.41 125.442 290.565C127.617 292.719 130.556 293.928 133.619 293.928C136.682 293.928 139.621 292.719 141.796 290.565C143.971 288.41 145.206 285.485 145.231 282.425V271.892L145.818 272.002C154.169 273.571 189.331 273.819 197.829 272.705L198.389 272.632Z" fill="#075E54"/>
<path d="M142.838 58.9455L87.9764 75.4142C86.2314 75.9401 84.7668 77.1364 83.9043 78.7402C83.0418 80.3441 82.852 82.2244 83.3765 83.968C83.9011 85.7115 85.0971 87.1758 86.7018 88.0392C88.3065 88.9025 90.1887 89.0942 91.9349 88.5722L139.945 74.1572L140.951 73.8554C141.154 68.6785 142.56 63.6199 145.058 59.0791C144.744 58.9383 144.409 58.8513 144.067 58.8218C143.653 58.7818 143.236 58.8238 142.838 58.9455Z" fill="#6C63FF"/>
<path d="M90.986 92.0835C90.2577 92.0817 89.5484 91.8514 88.9584 91.425C88.3683 90.9987 87.9272 90.3979 87.6976 89.7076L84.2669 79.3672C84.1236 78.9354 84.0669 78.4796 84.1 78.0259C84.1331 77.5722 84.2553 77.1294 84.4597 76.7229C84.6641 76.3163 84.9467 75.954 85.2913 75.6566C85.6359 75.3592 86.0358 75.1325 86.4682 74.9894L131.12 60.2082C131.553 60.065 132.009 60.0084 132.463 60.0414C132.917 60.0744 133.36 60.1964 133.767 60.4005C134.174 60.6046 134.537 60.8868 134.835 61.2309C135.133 61.5751 135.36 61.9745 135.503 62.4062L138.934 72.7466C139.219 73.5971 139.162 74.5252 138.774 75.3343C138.386 76.1433 137.699 76.7699 136.856 77.0812C136.815 77.0966 136.773 77.1112 136.731 77.1249L92.0803 91.9057C91.7274 92.0232 91.358 92.0832 90.986 92.0835Z" fill="#075E54"/>
<path d="M174.609 40.5815C165.597 40.585 156.94 44.0911 150.47 50.3577C144 56.6243 140.226 65.1597 139.945 74.1572C139.935 74.5085 139.93 74.8648 139.93 75.2211C139.93 82.0722 141.964 88.7693 145.775 94.4658C149.585 100.162 155.001 104.602 161.338 107.224C167.675 109.846 174.648 110.532 181.375 109.195C188.102 107.858 194.281 104.559 199.131 99.715C203.981 94.8705 207.284 88.6983 208.622 81.9789C209.96 75.2595 209.273 68.2947 206.648 61.9651C204.024 55.6356 199.579 50.2256 193.876 46.4194C188.173 42.6131 181.468 40.5815 174.609 40.5815ZM174.609 108.871C165.677 108.862 157.114 105.313 150.798 99.0049C144.483 92.6963 140.93 84.1427 140.921 75.2211C140.921 74.7609 140.931 74.3056 140.951 73.8553C141.219 67.2638 143.421 60.8965 147.283 55.545C151.145 50.1936 156.497 46.0942 162.673 43.7566C168.849 41.419 175.577 40.9462 182.019 42.3972C188.462 43.8481 194.336 47.1587 198.91 51.9173C203.484 56.6759 206.557 62.6726 207.746 69.1617C208.936 75.6508 208.189 82.3459 205.6 88.4147C203.011 94.4835 198.693 99.6581 193.182 103.295C187.672 106.932 181.214 108.871 174.609 108.871Z" fill="#075E54"/>
<path d="M203.839 75.221C203.839 82.9643 200.759 90.3905 195.278 95.8658C189.796 101.341 182.361 104.417 174.609 104.417C166.857 104.417 159.423 101.341 153.941 95.8658C148.459 90.3905 145.38 82.9643 145.38 75.221C145.38 74.2956 145.424 73.3851 145.509 72.4845C146.213 65.0114 149.772 58.0963 155.446 53.1752C161.12 48.2541 168.474 45.7049 175.981 46.0571C183.487 46.4092 190.569 49.6356 195.757 55.0664C200.944 60.4971 203.839 67.7148 203.839 75.221Z" fill="#B1E5AA"/>
<path d="M183.313 77.161C182.605 76.2305 181.673 75.4936 180.604 75.0183C179.285 74.4631 177.923 74.0162 176.531 73.6822V65.7349C178.67 66.057 180.676 66.9707 182.323 68.3724L183.938 64.9332C183.009 64.1066 181.942 63.4485 180.787 62.9885C179.506 62.4704 178.161 62.1259 176.789 61.9641V57.936H173.049V62.0037C171.604 62.1658 170.211 62.633 168.961 63.3745C167.833 64.0418 166.882 64.9722 166.192 66.0862C165.533 67.1734 165.192 68.4229 165.206 69.6937C165.142 71.0708 165.541 72.4297 166.341 73.5535C167.077 74.5265 168.048 75.2963 169.164 75.7903C170.504 76.3618 171.89 76.8203 173.306 77.161V84.7767C170.782 84.5866 168.377 83.628 166.415 82.0303L164.8 85.4745C165.897 86.3804 167.145 87.0872 168.486 87.5627C169.956 88.0881 171.491 88.4079 173.049 88.5129V92.5063H176.789V88.4386C178.866 88.2119 180.815 87.3196 182.342 85.8951C183.015 85.2506 183.547 84.4736 183.903 83.6133C184.26 82.7529 184.433 81.828 184.413 80.8971C184.475 79.5639 184.088 78.2484 183.313 77.161ZM173.306 72.8409C172.395 72.565 171.548 72.1108 170.814 71.5048C170.523 71.2465 170.294 70.927 170.141 70.5693C169.989 70.2117 169.917 69.8248 169.932 69.4364C169.905 68.555 170.23 67.6989 170.834 67.0561C171.504 66.3818 172.368 65.9336 173.306 65.7745V72.8409ZM178.88 83.3714C178.248 84.0188 177.425 84.4471 176.531 84.5936V78.0418C177.385 78.2707 178.184 78.6696 178.88 79.2146C179.143 79.4396 179.353 79.721 179.493 80.038C179.632 80.355 179.699 80.6994 179.687 81.0456C179.721 81.8948 179.433 82.7257 178.88 83.3714Z" fill="#37BD25"/>
<path d="M92.5783 133.992C91.8124 133.991 91.0684 133.737 90.4616 133.27C89.8547 132.804 89.4189 132.15 89.2219 131.411L87.3541 124.349C87.1203 123.462 87.2485 122.518 87.7105 121.724C88.1726 120.931 88.9308 120.353 89.8188 120.118L148.744 104.565C149.633 104.333 150.578 104.462 151.371 104.925C152.165 105.387 152.744 106.145 152.98 107.032L154.562 113.014L154.266 113.037C139.153 114.211 124.694 119.684 112.598 128.809L112.512 128.85L93.4581 133.878C93.171 133.953 92.8752 133.992 92.5783 133.992Z" fill="#075E54"/>
<path d="M82.8192 168.872C75.907 167.852 69.2963 165.355 63.4376 161.552C60.5351 159.67 57.8481 157.474 55.4248 155.006C53.0331 152.569 50.7449 149.8 49.5603 146.555C48.4204 143.552 48.4792 140.227 49.7244 137.267C50.9525 134.324 53.2987 131.989 56.2483 130.771C59.2156 129.589 62.8007 129.463 65.6886 130.757C67.0647 131.36 68.2556 132.317 69.1388 133.532C69.5494 134.091 69.8534 134.722 70.0357 135.391C70.2048 135.998 70.2202 136.637 70.0804 137.251C69.9111 137.865 69.6125 138.435 69.2046 138.923C68.7967 139.411 68.2889 139.807 67.7154 140.083C66.4532 140.73 65.0855 141.147 63.6767 141.314C62.2598 141.507 60.2244 141.682 59.0853 140.546C58.8508 140.322 58.6663 140.05 58.544 139.749C58.4583 139.519 58.4291 139.272 58.4586 139.028C58.4419 139.135 58.5273 138.794 58.5224 138.808C58.5044 138.858 58.4264 138.981 58.5373 138.792C58.5719 138.73 58.6105 138.67 58.6528 138.612C58.6151 138.661 58.5324 138.742 58.6801 138.603C58.8021 138.47 58.959 138.373 59.133 138.324C59.2016 138.304 59.2712 138.288 59.3399 138.269C59.5147 138.221 59.1657 138.272 59.3445 138.266C59.4135 138.264 59.4834 138.265 59.5521 138.262C59.7275 138.254 59.3791 138.215 59.5472 138.257C59.6124 138.273 59.6771 138.289 59.7414 138.309C59.8811 138.353 59.6424 138.207 59.7371 138.317C59.8481 138.445 59.6206 138.192 59.7467 138.316C59.8095 138.378 59.8687 138.443 59.9239 138.511C60.1427 138.727 60.4377 138.848 60.7451 138.848C61.0525 138.848 61.3475 138.727 61.5662 138.511C61.7775 138.29 61.8954 137.996 61.8954 137.691C61.8954 137.385 61.7775 137.092 61.5662 136.871C60.4211 135.453 58.1592 135.803 57.0009 137.001C55.5235 138.53 56.1086 140.952 57.5456 142.285C59.1724 143.795 61.4764 143.9 63.569 143.647C65.3375 143.478 67.0609 142.991 68.6564 142.211C70.2418 141.433 71.4818 140.095 72.1362 138.456C72.4317 137.581 72.5378 136.654 72.4476 135.735C72.3574 134.816 72.0728 133.927 71.6129 133.127C69.7653 129.657 65.9396 127.879 62.1582 127.57C60.2114 127.418 58.2536 127.653 56.3982 128.261C54.5428 128.87 52.8266 129.84 51.3489 131.115C48.5008 133.676 46.747 137.233 46.4502 141.049C46.1201 145.006 47.6571 148.849 49.8979 152.042C52.2438 155.286 55.0431 158.178 58.2106 160.629C64.403 165.567 71.6666 168.989 79.4202 170.621C80.3425 170.811 81.2697 170.974 82.2018 171.109C82.4984 171.181 82.8113 171.137 83.0767 170.987C83.3421 170.836 83.54 170.59 83.6303 170.299C83.7099 170.003 83.6695 169.687 83.5177 169.42C83.3659 169.153 83.115 168.956 82.8192 168.872L82.8192 168.872Z" fill="#075E54"/>
<path d="M193.487 118.459C183.36 118.316 173.264 118.573 163.201 119.229C159.761 119.453 156.785 120.668 156.785 122.709C156.785 124.415 159.738 126.414 163.201 126.188C173.259 125.532 183.355 125.276 193.487 125.418C201.748 125.535 201.743 118.575 193.487 118.459Z" fill="#B1E5AA"/>
<path d="M178.519 125.073C177.424 125.073 151.714 125.032 151.714 121.485C151.714 117.938 177.424 117.897 178.519 117.897C179.613 117.897 205.323 117.938 205.323 121.485C205.323 125.032 179.613 125.073 178.519 125.073ZM152.719 121.485C153.423 122.56 162.874 124.083 178.519 124.083C194.164 124.083 203.614 122.56 204.318 121.485C203.614 120.41 194.164 118.887 178.519 118.887C162.874 118.887 153.423 120.41 152.719 121.485V121.485Z" fill="#3F3D56"/>
<path d="M260.09 218.328C265.782 218.17 272.865 217.973 278.322 213.991C279.947 212.757 281.282 211.183 282.234 209.379C283.186 207.575 283.731 205.585 283.831 203.548C283.943 200.404 282.805 197.659 280.629 195.821C277.778 193.416 273.617 192.852 269.131 194.168L273.778 160.247L270.367 159.78L264.904 199.659L267.753 198.353C271.055 196.84 275.589 196.07 278.406 198.448C279.098 199.07 279.637 199.842 279.981 200.706C280.325 201.569 280.465 202.501 280.391 203.427C280.307 204.943 279.898 206.423 279.19 207.767C278.483 209.11 277.494 210.286 276.291 211.213C272.044 214.312 266.398 214.712 259.995 214.89L260.09 218.328Z" fill="#3F3D56"/>
<path d="M250.659 163.172H232.114V166.612H250.659V163.172Z" fill="#075E54"/>
<path d="M100.97 149.81C100.144 149.807 99.3469 149.511 98.7202 148.974C98.0935 148.438 97.6785 147.696 97.5496 146.881L96.4176 139.666C96.2763 138.758 96.5011 137.832 97.0427 137.09C97.5844 136.347 98.3987 135.85 99.307 135.707L159.515 126.284C160.424 126.143 161.351 126.367 162.094 126.908C162.837 127.449 163.335 128.263 163.478 129.17L164.61 136.386C164.751 137.293 164.526 138.22 163.985 138.962C163.443 139.704 162.629 140.201 161.721 140.344L101.512 149.767C101.333 149.795 101.152 149.81 100.97 149.81Z" fill="#075E54"/>
<path d="M76.0527 65.2487C90.0068 65.2487 101.319 53.9495 101.319 40.0113C101.319 26.0731 90.0068 14.7739 76.0527 14.7739C62.0987 14.7739 50.7867 26.0731 50.7867 40.0113C50.7867 53.9495 62.0987 65.2487 76.0527 65.2487Z" fill="#37BD25"/>
<path d="M90.3579 46.5411C91.1654 46.259 91.9031 45.8075 92.5213 45.2169C92.9303 44.7958 93.2423 44.2904 93.4352 43.7363C93.6282 43.1821 93.6975 42.5925 93.6383 42.0087C93.604 41.5927 93.4738 41.1902 93.2579 40.8327C93.042 40.4753 92.7463 40.1725 92.3938 39.9481C91.4794 39.3864 90.2712 39.4077 89.0513 39.9725L88.9105 30.1211L87.9198 30.1352L88.0853 41.7166L88.8395 41.2225C89.714 40.6505 90.9706 40.2357 91.8747 40.7912C92.0983 40.9382 92.2849 41.1348 92.4201 41.3657C92.5552 41.5965 92.6352 41.8553 92.6539 42.1221C92.6956 42.557 92.643 42.9957 92.4997 43.4085C92.3564 43.8212 92.1258 44.1983 91.8235 44.514C90.7495 45.5785 89.1597 45.9352 87.3453 46.2614L87.5209 47.2354C88.4854 47.0891 89.4349 46.8567 90.3579 46.5411Z" fill="#2F2E41"/>
<path d="M99.1129 29.4299L93.8367 30.228L93.985 31.2065L99.2613 30.4083L99.1129 29.4299Z" fill="#2F2E41"/>
<path d="M82.4587 31.9479L77.1824 32.7461L77.3308 33.7245L82.607 32.9264L82.4587 31.9479Z" fill="#2F2E41"/>
<path d="M92.7497 149.369C91.8411 149.367 90.9545 149.088 90.2081 148.571C89.4617 148.053 88.8907 147.321 88.5712 146.471L71.151 99.8718C69.0218 94.1566 69.2491 87.8312 71.7832 82.2833C74.3172 76.7354 78.951 72.4181 84.6679 70.2786L98.8325 64.9954C99.3803 64.7898 99.9633 64.6943 100.548 64.7146C101.133 64.7349 101.708 64.8705 102.24 65.1136C102.771 65.3505 103.249 65.6907 103.647 66.1143C104.044 66.5379 104.354 67.0365 104.556 67.5808L136.826 128.439C137.035 128.988 137.134 129.573 137.116 130.16C137.099 130.747 136.965 131.325 136.723 131.86C136.481 132.395 136.135 132.878 135.706 133.279C135.277 133.68 134.772 133.993 134.222 134.199L94.3079 149.086C93.8097 149.272 93.2819 149.368 92.7497 149.369Z" fill="#075E54"/>
<path d="M94.5349 66.5985L126.553 109.366L104.888 67.0474C104.709 66.5536 104.434 66.0999 104.08 65.7121C103.725 65.3243 103.298 65.0101 102.822 64.7875C102.345 64.5648 101.83 64.4379 101.305 64.4142C100.78 64.3905 100.255 64.4704 99.7607 64.6493L94.5349 66.5985Z" fill="#E6E6E6"/>
<path d="M145.231 99.0774L88.0632 95.3991C87.1621 95.3411 86.2813 95.1064 85.471 94.7084C84.6607 94.3104 83.9368 93.7569 83.3406 93.0794C82.7445 92.402 82.2878 91.6139 81.9966 90.7601C81.7053 89.9063 81.5853 89.0036 81.6434 88.1035C81.7014 87.2035 81.9364 86.3236 82.3348 85.5142C82.7333 84.7048 83.2874 83.9818 83.9657 83.3863C84.6439 82.7908 85.4329 82.3346 86.2876 82.0438C87.1423 81.7529 88.0461 81.633 88.9472 81.691L146.115 85.369C146.537 85.3961 146.95 85.506 147.329 85.6924C147.709 85.8787 148.048 86.1379 148.327 86.4552C148.606 86.7725 148.82 87.1415 148.957 87.5414C149.093 87.9412 149.149 88.364 149.122 88.7855L148.652 96.0742C148.597 96.9255 148.206 97.7202 147.564 98.2834C146.923 98.8465 146.084 99.1322 145.231 99.0774Z" fill="#6C63FF"/>
<path d="M129.955 101.436C129.88 101.436 129.804 101.433 129.728 101.428H129.728L82.7847 98.408C82.3302 98.3788 81.886 98.2605 81.4773 98.0598C81.0686 97.8591 80.7035 97.5799 80.4028 97.2383C80.1022 96.8966 79.8718 96.4991 79.7249 96.0686C79.5781 95.638 79.5176 95.1827 79.5469 94.7288L80.3496 82.2792C80.3789 81.8252 80.4974 81.3815 80.6984 80.9733C80.8994 80.5651 81.1789 80.2004 81.5209 79.9001C81.863 79.5998 82.261 79.3697 82.6921 79.2231C83.1232 79.0764 83.579 79.016 84.0335 79.0453L130.977 82.0653C131.894 82.1254 132.75 82.5465 133.357 83.2362C133.964 83.926 134.273 84.8281 134.214 85.7446L133.412 98.1944C133.368 98.8615 133.132 99.5016 132.732 100.038C132.333 100.574 131.787 100.984 131.16 101.218C130.774 101.362 130.366 101.436 129.955 101.436Z" fill="#075E54"/>
<path d="M75.763 23.2285C79.0869 20.3731 83.6513 22.9275 87.463 22.4803C91.1098 22.0525 93.9894 18.785 94.7251 15.3137C95.5833 11.2638 93.4788 7.20647 90.377 4.68146C86.9798 1.91594 82.4741 1.12203 78.2045 1.63367C73.311 2.22007 68.8357 4.49853 64.82 7.25445C60.9438 9.83218 57.3793 12.8493 54.1975 16.2455C51.3483 19.3886 48.9344 23.1351 48.1635 27.3647C47.463 31.2084 47.9979 35.4678 50.2727 38.724C51.479 40.393 53.0956 41.7232 54.9664 42.5865C56.917 43.5432 58.9978 44.2272 60.8876 45.309C63.745 46.9446 66.5222 50.3361 65.6271 53.8654C65.4352 54.6364 65.0565 55.3484 64.5243 55.9388C63.8849 56.6478 62.7316 55.7109 63.3727 55.0001C64.4987 53.7515 64.4543 52.0864 63.8542 50.5958C63.1407 48.9161 61.8772 47.5282 60.2707 46.6596C58.2925 45.5299 56.1085 44.8326 54.081 43.8035C52.1404 42.8635 50.4558 41.4691 49.1708 39.7389C46.7441 36.3705 46.0183 31.9867 46.5686 27.9313C47.1642 23.5427 49.4215 19.5549 52.2513 16.213C55.3309 12.5761 59.1137 9.49761 62.9782 6.73198C67.1248 3.76443 71.7061 1.25558 76.7755 0.348167C81.1699 -0.438418 85.9331 0.0458533 89.7758 2.43789C93.3627 4.6707 96.1132 8.51157 96.3868 12.8034C96.485 14.7561 96.0605 16.6998 95.157 18.4342C94.2535 20.1687 92.9036 21.6314 91.2463 22.6717C89.5457 23.6882 87.5685 24.1458 85.5936 23.9798C83.4823 23.8448 81.3691 23.199 79.2443 23.3783C78.2829 23.4366 77.3666 23.8064 76.6345 24.4316C75.9083 25.0555 75.0428 23.8473 75.763 23.2286V23.2285Z" fill="#075E54"/>
<path d="M366.511 295.513H0.750649C0.594499 295.512 0.444903 295.45 0.334648 295.34C0.224393 295.229 0.162476 295.08 0.162476 294.924C0.162476 294.768 0.224393 294.618 0.334648 294.508C0.444903 294.397 0.594499 294.335 0.750649 294.334H366.511C366.667 294.334 366.817 294.397 366.928 294.507C367.038 294.618 367.1 294.767 367.1 294.924C367.1 295.08 367.038 295.23 366.928 295.34C366.817 295.451 366.667 295.513 366.511 295.513Z" fill="#3F3D56"/>
</svg>
